<?xml version="1.0" standalone="no"?>
<!DOCTYPE svg PUBLIC "-//W3C//DTD SVG 20010904//EN"
 "http://www.w3.org/TR/2001/REC-SVG-20010904/DTD/svg10.dtd">
<svg version="1.0" xmlns="http://www.w3.org/2000/svg"
 width="700.000000pt" height="700.000000pt" viewBox="0 0 700.000000 700.000000"
 preserveAspectRatio="xMidYMid meet">
<metadata>
Created by potrace 1.14, written by Peter Selinger 2001-2017
</metadata>
<g transform="translate(0.000000,700.000000) scale(0.100000,-0.100000)"
fill="#000000" stroke="none">
<path d="M3019 6776 c-2 -2 -23 -6 -47 -10 -182 -25 -363 -93 -627 -236 -179
-97 -292 -157 -430 -230 -55 -29 -113 -60 -130 -70 -16 -9 -88 -48 -160 -85
-236 -124 -337 -192 -456 -307 -177 -170 -221 -241 -442 -698 -46 -96 -127
-263 -179 -370 -235 -482 -245 -504 -282 -650 -22 -86 -30 -131 -42 -240 -11
-93 1 -324 20 -389 3 -9 7 -34 11 -56 5 -36 34 -205 50 -295 4 -19 8 -46 10
-60 2 -14 6 -36 9 -50 3 -14 17 -95 32 -180 14 -85 28 -164 30 -175 2 -11 13
-74 25 -140 61 -354 119 -518 251 -713 89 -132 148 -196 454 -489 40 -37 185
-178 325 -313 139 -135 260 -252 269 -260 30 -29 155 -126 197 -153 151 -96
304 -157 508 -202 46 -10 118 -21 200 -30 22 -3 51 -7 64 -10 13 -2 49 -7 80
-11 31 -3 63 -7 71 -9 22 -4 89 -14 135 -20 23 -3 50 -7 61 -9 11 -2 47 -7 79
-10 32 -4 61 -8 64 -10 3 -2 33 -7 66 -10 33 -3 74 -8 90 -11 74 -12 93 -15
140 -20 28 -3 63 -8 78 -11 59 -12 86 -15 217 -20 153 -7 263 4 416 42 139 34
274 91 474 201 51 28 94 51 270 145 36 19 115 61 175 93 61 32 124 65 140 75
17 10 89 48 160 85 72 37 137 73 145 80 8 6 22 15 31 18 37 13 189 130 265
203 168 163 219 245 429 679 48 99 130 268 182 375 252 517 278 582 313 781
16 91 19 146 16 274 -5 174 -10 213 -33 263 -26 54 -70 80 -174 101 -195 41
-315 83 -473 163 -94 48 -219 127 -275 173 -13 11 -40 33 -60 50 -200 166
-362 385 -481 650 -21 46 -58 158 -96 289 -38 129 -113 184 -289 213 -158 25
-426 135 -596 244 -374 240 -652 637 -755 1076 -9 37 -17 77 -18 88 -13 103
-58 161 -139 182 -24 6 -362 14 -368 9z m-16 -1776 c155 -59 262 -207 274
-381 17 -242 -179 -457 -421 -461 -329 -5 -547 334 -402 626 57 117 152 196
277 231 73 20 196 14 272 -15z m2142 -1736 c157 -40 281 -173 315 -338 46
-222 -101 -450 -324 -505 -45 -11 -149 -16 -186 -8 -109 23 -222 98 -281 189
-139 216 -74 496 145 619 107 59 216 74 331 43z m-2665 -428 c204 -30 362
-218 362 -431 0 -167 -102 -324 -260 -398 -62 -29 -75 -31 -172 -31 -86 0
-115 4 -162 22 -110 44 -206 140 -249 249 -28 70 -33 221 -10 293 49 150 198
277 352 298 35 5 73 7 84 6 11 -2 36 -5 55 -8z"/>
</g>
</svg>
